<svg xmlns="http://www.w3.org/2000/svg" xmlns:xlink="http://www.w3.org/1999/xlink" width="500" zoomAndPan="magnify" viewBox="0 0 375 374.999991" height="500" preserveAspectRatio="xMidYMid meet" version="1.2"><defs><clipPath id="bb67116bbc"><path d="M 101 153 L 219 153 L 219 314.695312 L 101 314.695312 Z M 101 153 "/></clipPath><clipPath id="bad53d3527"><path d="M 99 28.945312 L 308.21875 28.945312 L 308.21875 278 L 99 278 Z M 99 28.945312 "/></clipPath><clipPath id="e4b6fcbee7"><path d="M 19.46875 221 L 100 221 L 100 266 L 19.46875 266 Z M 19.46875 221 "/></clipPath></defs><g id="e2a5f71ea0"><g clip-rule="nonzero" clip-path="url(#bb67116bbc)"><path style=" stroke:none;fill-rule:nonzero;fill:#08823f;fill-opacity:1;" d="M 121.621094 312.78125 C 124.714844 308.257812 127.664062 303.574219 129.558594 298.375 C 131.542969 293.164062 132.777344 287.710938 133.371094 282.273438 C 133.566406 280.347656 133.683594 278.4375 133.773438 276.53125 C 133.773438 276.511719 133.785156 276.492188 133.804688 276.488281 C 149.855469 270.667969 168.773438 253.996094 171.019531 251.988281 C 171.058594 251.953125 171.011719 251.890625 170.957031 251.914062 C 161.699219 255.972656 157.480469 251.34375 157.097656 250.890625 C 157.078125 250.867188 157.085938 250.84375 157.109375 250.828125 C 179.464844 235.597656 184.148438 202.535156 184.148438 202.535156 C 187.433594 183.738281 198.59375 169.558594 218.011719 159.644531 C 218.046875 159.628906 218.050781 159.582031 218.015625 159.558594 C 192.65625 143.289062 165.960938 166.171875 164.664062 167.300781 C 164.636719 167.328125 164.605469 167.3125 164.59375 167.277344 C 163.609375 164.367188 167.953125 157.929688 168.621094 156.960938 C 168.652344 156.921875 168.609375 156.875 168.5625 156.890625 C 127.265625 171.75 111.6875 216.84375 111.324219 218.558594 C 111.316406 218.582031 111.292969 218.585938 111.265625 218.578125 C 105.566406 216.605469 104.457031 208.101562 104.28125 206.207031 C 104.273438 206.148438 104.191406 206.152344 104.179688 206.207031 C 93.804688 262.371094 121.085938 271.921875 124.507812 273.460938 C 124.546875 273.480469 124.566406 273.457031 124.5625 273.414062 C 118.734375 223.265625 157.234375 194.140625 161.945312 190.777344 C 161.996094 190.742188 162.054688 190.800781 162.011719 190.847656 C 157.867188 194.996094 152.652344 203.003906 149.113281 208.796875 C 146.777344 212.363281 144.613281 216.054688 142.585938 219.804688 C 140.085938 224.523438 137.820312 229.363281 135.78125 234.320312 C 133.757812 239.347656 132.425781 244.636719 131.566406 249.976562 C 129.898438 260.691406 130.359375 271.464844 128.785156 281.671875 C 127.976562 286.765625 126.59375 291.683594 124.574219 296.308594 C 122.625 300.980469 119.671875 305.148438 116.625 309.179688 L 116.492188 309.355469 C 116.46875 309.386719 116.445312 309.421875 116.417969 309.457031 C 115.402344 310.9375 115.851562 312.988281 117.445312 313.894531 C 118.871094 314.703125 120.695312 314.128906 121.621094 312.78125 "/></g><g clip-rule="nonzero" clip-path="url(#bad53d3527)"><path style=" stroke:none;fill-rule:nonzero;fill:#08823f;fill-opacity:1;" d="M 221.972656 111.605469 C 212.125 119.050781 199.796875 122.765625 184.988281 122.765625 C 174.398438 122.765625 166.679688 121.777344 161.847656 119.785156 C 157.003906 117.804688 154.585938 112.550781 154.585938 104.035156 L 154.585938 61.117188 C 154.585938 54.421875 156.722656 49.875 160.992188 47.492188 C 165.261719 45.117188 173.265625 43.925781 184.988281 43.925781 C 200.136719 43.925781 212.542969 47.246094 222.226562 53.882812 C 231.90625 60.519531 236.75 69.800781 236.75 81.726562 C 236.75 94.214844 231.828125 104.179688 221.972656 111.605469 Z M 286.253906 154.648438 C 271.625 140.113281 253.933594 131.144531 233.175781 127.75 L 230.625 126.554688 L 233.175781 124.847656 C 243.953125 121.097656 252.390625 115.789062 258.519531 108.917969 C 264.640625 102.054688 267.710938 94.125 267.710938 85.15625 C 267.710938 68.460938 260.957031 54.917969 247.449219 44.523438 C 233.941406 34.136719 219.175781 28.941406 203.167969 28.941406 L 111.386719 28.941406 C 108.207031 28.941406 105.507812 29.582031 103.296875 30.878906 C 101.082031 32.171875 99.980469 33.824219 99.980469 35.839844 C 99.980469 38.425781 100.710938 40.4375 102.191406 41.902344 C 103.664062 43.363281 107.296875 44.09375 113.070312 44.09375 C 118.746094 44.09375 122.378906 45.433594 123.960938 48.101562 C 125.546875 50.777344 126.34375 54.332031 126.34375 58.761719 L 126.34375 176.605469 C 133.996094 167.789062 143.808594 159.238281 156.136719 153.074219 C 156.304688 148.203125 159.304688 144.421875 165.128906 141.742188 C 171.140625 138.964844 179.425781 137.582031 189.964844 137.582031 C 213.664062 137.582031 233.511719 143.273438 249.507812 154.648438 C 265.496094 166.019531 273.488281 180.996094 273.488281 199.570312 C 273.488281 219.492188 266.035156 235.085938 251.125 246.355469 C 236.210938 257.617188 216.164062 263.253906 190.988281 263.253906 C 182.628906 263.253906 176.117188 263.0625 171.476562 262.691406 C 166.691406 266.640625 159.394531 272.273438 151.441406 277.101562 C 165.566406 277.179688 183.332031 277.214844 204.765625 277.214844 C 238.222656 277.214844 263.820312 270.464844 281.570312 256.953125 C 299.324219 243.453125 308.191406 226.308594 308.191406 205.542969 C 308.191406 186.136719 300.875 169.171875 286.253906 154.648438 "/></g><g clip-rule="nonzero" clip-path="url(#e4b6fcbee7)"><path style=" stroke:none;fill-rule:nonzero;fill:#08823f;fill-opacity:1;" d="M 19.464844 241.375 C 19.453125 241.394531 19.476562 241.414062 19.5 241.414062 C 31.167969 239.253906 40.695312 241.675781 48.335938 248.714844 C 48.335938 248.714844 61.304688 261.453125 76.015625 260.617188 C 76.03125 260.621094 76.042969 260.625 76.046875 260.648438 C 76.027344 260.96875 75.730469 264.367188 70.382812 265.683594 C 70.355469 265.699219 70.355469 265.734375 70.390625 265.738281 C 71.6875 265.835938 80.585938 266.453125 88.632812 265.285156 L 88.640625 265.28125 C 90.339844 265.042969 91.996094 264.71875 93.53125 264.292969 C 93.5625 264.285156 93.585938 264.269531 93.617188 264.265625 C 94.78125 263.859375 95.851562 263.367188 96.800781 262.871094 C 93.445312 259.332031 90.4375 255.289062 86.773438 251.78125 C 84.632812 249.753906 82.3125 247.910156 79.769531 246.417969 C 77.246094 244.941406 74.667969 243.601562 72.023438 242.390625 C 69.90625 241.445312 67.746094 240.570312 65.550781 239.796875 C 62.109375 238.464844 57.199219 236.738281 54.039062 236.320312 C 54.003906 236.320312 54.007812 236.273438 54.039062 236.265625 C 57.195312 236.160156 83.480469 235.96875 97.5625 259.585938 C 97.574219 259.605469 97.585938 259.609375 97.597656 259.589844 C 98.574219 257.785156 107.203125 244.609375 84.125 223.769531 C 84.101562 223.75 84.0625 223.78125 84.078125 223.804688 C 84.632812 224.6875 86.96875 228.726562 85.152344 231.476562 C 85.144531 231.480469 85.136719 231.488281 85.125 231.484375 C 84.40625 230.863281 62.738281 216.535156 39.964844 223.804688 C 39.941406 223.820312 39.9375 223.855469 39.964844 223.863281 C 40.566406 224.058594 44.578125 225.402344 45.113281 226.984375 C 45.125 227 45.113281 227.019531 45.089844 227.019531 C 44.160156 226.957031 25.042969 225.925781 19.464844 241.375 "/></g><g style="fill:#1b5e20;fill-opacity:1;"><g transform="translate(129.806511, 312.929219)"><path style="stroke:none" d="M 13.515625 -13.171875 C 15.609375 -12.921875 17.273438 -12.21875 18.515625 -11.0625 C 19.753906 -9.914062 20.375 -8.492188 20.375 -6.796875 C 20.375 -5.492188 20 -4.316406 19.25 -3.265625 C 18.5 -2.210938 17.460938 -1.378906 16.140625 -0.765625 C 14.816406 -0.148438 13.335938 0.15625 11.703125 0.15625 C 11.003906 0.15625 10.207031 0.113281 9.3125 0.03125 C 8.957031 0.0078125 8.523438 -0.0078125 8.015625 -0.03125 C 7.503906 -0.0625 6.9375 -0.078125 6.3125 -0.078125 L 3.5625 -0.03125 C 3.0625 -0.0078125 2.382812 0 1.53125 0 C 1.457031 0 1.421875 -0.0703125 1.421875 -0.21875 C 1.421875 -0.375 1.457031 -0.453125 1.53125 -0.453125 C 2.257812 -0.453125 2.8125 -0.519531 3.1875 -0.65625 C 3.5625 -0.789062 3.828125 -1.039062 3.984375 -1.40625 C 4.148438 -1.769531 4.234375 -2.316406 4.234375 -3.046875 L 4.234375 -20.421875 C 4.234375 -21.472656 4.054688 -22.164062 3.703125 -22.5 C 3.359375 -22.832031 2.648438 -23 1.578125 -23 C 1.523438 -23 1.5 -23.070312 1.5 -23.21875 C 1.5 -23.375 1.523438 -23.453125 1.578125 -23.453125 L 3.5625 -23.421875 C 4.71875 -23.367188 5.632812 -23.34375 6.3125 -23.34375 C 7.007812 -23.34375 7.734375 -23.378906 8.484375 -23.453125 C 8.734375 -23.484375 9.109375 -23.507812 9.609375 -23.53125 C 10.109375 -23.550781 10.546875 -23.5625 10.921875 -23.5625 C 13.203125 -23.5625 14.96875 -23.148438 16.21875 -22.328125 C 17.46875 -21.503906 18.09375 -20.304688 18.09375 -18.734375 C 18.09375 -17.523438 17.695312 -16.429688 16.90625 -15.453125 C 16.113281 -14.484375 14.984375 -13.722656 13.515625 -13.171875 Z M 10.359375 -22.75 C 9.628906 -22.75 9.125 -22.578125 8.84375 -22.234375 C 8.570312 -21.898438 8.4375 -21.269531 8.4375 -20.34375 L 8.4375 -13.21875 L 9.953125 -13.171875 C 11.242188 -13.171875 12.238281 -13.65625 12.9375 -14.625 C 13.644531 -15.601562 14 -16.859375 14 -18.390625 C 14 -19.816406 13.6875 -20.898438 13.0625 -21.640625 C 12.4375 -22.378906 11.535156 -22.75 10.359375 -22.75 Z M 11.078125 -0.78125 C 14.347656 -0.78125 15.984375 -2.484375 15.984375 -5.890625 C 15.984375 -7.816406 15.519531 -9.34375 14.59375 -10.46875 C 13.675781 -11.59375 12.273438 -12.15625 10.390625 -12.15625 C 9.671875 -12.15625 9.019531 -12.128906 8.4375 -12.078125 L 8.4375 -3.046875 C 8.4375 -2.210938 8.597656 -1.625 8.921875 -1.28125 C 9.253906 -0.945312 9.972656 -0.78125 11.078125 -0.78125 Z M 11.078125 -0.78125 "/></g></g><g style="fill:#1b5e20;fill-opacity:1;"><g transform="translate(152.132926, 312.929219)"><path style="stroke:none" d="M 21.4375 -18.65625 C 21.4375 -20 21.128906 -21.054688 20.515625 -21.828125 C 19.898438 -22.609375 19.039062 -23 17.9375 -23 C 17.882812 -23 17.859375 -23.070312 17.859375 -23.21875 C 17.859375 -23.375 17.882812 -23.453125 17.9375 -23.453125 L 19.734375 -23.421875 C 20.691406 -23.367188 21.457031 -23.34375 22.03125 -23.34375 C 22.507812 -23.34375 23.195312 -23.367188 24.09375 -23.421875 L 25.828125 -23.453125 C 25.867188 -23.453125 25.890625 -23.375 25.890625 -23.21875 C 25.890625 -23.070312 25.867188 -23 25.828125 -23 C 24.847656 -23 24.082031 -22.609375 23.53125 -21.828125 C 22.976562 -21.054688 22.703125 -20 22.703125 -18.65625 L 22.703125 -8.21875 C 22.703125 -6.46875 22.3125 -4.925781 21.53125 -3.59375 C 20.757812 -2.269531 19.664062 -1.25 18.25 -0.53125 C 16.84375 0.175781 15.210938 0.53125 13.359375 0.53125 C 11.503906 0.53125 9.863281 0.179688 8.4375 -0.515625 C 7.019531 -1.222656 5.898438 -2.242188 5.078125 -3.578125 C 4.265625 -4.921875 3.859375 -6.492188 3.859375 -8.296875 L 3.859375 -20.421875 C 3.859375 -21.171875 3.789062 -21.71875 3.65625 -22.0625 C 3.519531 -22.414062 3.269531 -22.660156 2.90625 -22.796875 C 2.539062 -22.929688 1.972656 -23 1.203125 -23 C 1.128906 -23 1.09375 -23.070312 1.09375 -23.21875 C 1.09375 -23.375 1.128906 -23.453125 1.203125 -23.453125 L 3.1875 -23.421875 C 4.34375 -23.367188 5.257812 -23.34375 5.9375 -23.34375 C 6.6875 -23.34375 7.632812 -23.367188 8.78125 -23.421875 L 10.703125 -23.453125 C 10.773438 -23.453125 10.8125 -23.375 10.8125 -23.21875 C 10.8125 -23.070312 10.773438 -23 10.703125 -23 C 9.921875 -23 9.347656 -22.925781 8.984375 -22.78125 C 8.617188 -22.632812 8.367188 -22.378906 8.234375 -22.015625 C 8.097656 -21.648438 8.03125 -21.09375 8.03125 -20.34375 L 8.03125 -9.609375 C 8.03125 -6.628906 8.617188 -4.425781 9.796875 -3 C 10.972656 -1.570312 12.632812 -0.859375 14.78125 -0.859375 C 16.863281 -0.859375 18.492188 -1.488281 19.671875 -2.75 C 20.847656 -4.019531 21.4375 -5.832031 21.4375 -8.1875 Z M 21.4375 -18.65625 "/></g></g><g style="fill:#1b5e20;fill-opacity:1;"><g transform="translate(178.511865, 312.929219)"><path style="stroke:none" d="M 12.234375 0.15625 C 11.429688 0.15625 10.476562 0.113281 9.375 0.03125 C 8.976562 0.0078125 8.484375 -0.0078125 7.890625 -0.03125 C 7.304688 -0.0625 6.65625 -0.078125 5.9375 -0.078125 L 3.15625 -0.03125 C 2.65625 -0.0078125 1.976562 0 1.125 0 C 1.070312 0 1.046875 -0.0703125 1.046875 -0.21875 C 1.046875 -0.375 1.070312 -0.453125 1.125 -0.453125 C 1.925781 -0.453125 2.515625 -0.515625 2.890625 -0.640625 C 3.265625 -0.765625 3.519531 -1.007812 3.65625 -1.375 C 3.789062 -1.738281 3.859375 -2.296875 3.859375 -3.046875 L 3.859375 -20.421875 C 3.859375 -21.171875 3.789062 -21.71875 3.65625 -22.0625 C 3.519531 -22.414062 3.269531 -22.660156 2.90625 -22.796875 C 2.539062 -22.929688 1.972656 -23 1.203125 -23 C 1.128906 -23 1.09375 -23.070312 1.09375 -23.21875 C 1.09375 -23.375 1.128906 -23.453125 1.203125 -23.453125 L 3.1875 -23.421875 C 4.34375 -23.367188 5.257812 -23.34375 5.9375 -23.34375 C 6.957031 -23.34375 8.003906 -23.378906 9.078125 -23.453125 C 10.378906 -23.503906 11.253906 -23.53125 11.703125 -23.53125 C 14.234375 -23.53125 16.476562 -23.03125 18.4375 -22.03125 C 20.40625 -21.03125 21.925781 -19.664062 23 -17.9375 C 24.082031 -16.207031 24.625 -14.269531 24.625 -12.125 C 24.625 -9.695312 24.066406 -7.550781 22.953125 -5.6875 C 21.835938 -3.820312 20.332031 -2.378906 18.4375 -1.359375 C 16.550781 -0.347656 14.484375 0.15625 12.234375 0.15625 Z M 11.859375 -0.71875 C 13.460938 -0.71875 14.875 -1.125 16.09375 -1.9375 C 17.320312 -2.75 18.28125 -3.953125 18.96875 -5.546875 C 19.65625 -7.148438 20 -9.066406 20 -11.296875 C 20 -13.421875 19.671875 -15.351562 19.015625 -17.09375 C 18.367188 -18.832031 17.445312 -20.203125 16.25 -21.203125 C 15.050781 -22.203125 13.660156 -22.703125 12.078125 -22.703125 C 10.535156 -22.703125 9.472656 -22.550781 8.890625 -22.25 C 8.316406 -21.957031 8.03125 -21.320312 8.03125 -20.34375 L 8.03125 -3.453125 C 8.03125 -2.453125 8.289062 -1.742188 8.8125 -1.328125 C 9.34375 -0.921875 10.359375 -0.71875 11.859375 -0.71875 Z M 11.859375 -0.71875 "/></g></g><g style="fill:#1b5e20;fill-opacity:1;"><g transform="translate(204.965854, 312.929219)"><path style="stroke:none" d="M 15.796875 0.453125 C 12.941406 0.453125 10.460938 -0.078125 8.359375 -1.140625 C 6.265625 -2.203125 4.65625 -3.644531 3.53125 -5.46875 C 2.40625 -7.300781 1.84375 -9.332031 1.84375 -11.5625 C 1.84375 -13.9375 2.472656 -16.0625 3.734375 -17.9375 C 4.992188 -19.8125 6.738281 -21.269531 8.96875 -22.3125 C 11.195312 -23.351562 13.695312 -23.875 16.46875 -23.875 C 17.675781 -23.875 18.878906 -23.78125 20.078125 -23.59375 C 21.273438 -23.40625 22.238281 -23.160156 22.96875 -22.859375 C 23.238281 -22.753906 23.394531 -22.671875 23.4375 -22.609375 C 23.476562 -22.546875 23.507812 -22.34375 23.53125 -22 L 24.015625 -16.78125 C 24.015625 -16.695312 23.945312 -16.644531 23.8125 -16.625 C 23.675781 -16.601562 23.59375 -16.640625 23.5625 -16.734375 C 23.238281 -17.566406 22.710938 -18.46875 21.984375 -19.4375 C 21.265625 -20.414062 20.316406 -21.265625 19.140625 -21.984375 C 17.960938 -22.710938 16.597656 -23.078125 15.046875 -23.078125 C 13.441406 -23.078125 11.976562 -22.640625 10.65625 -21.765625 C 9.332031 -20.890625 8.285156 -19.640625 7.515625 -18.015625 C 6.753906 -16.390625 6.375 -14.5 6.375 -12.34375 C 6.375 -9.988281 6.816406 -7.882812 7.703125 -6.03125 C 8.597656 -4.1875 9.832031 -2.75 11.40625 -1.71875 C 12.988281 -0.695312 14.765625 -0.1875 16.734375 -0.1875 C 17.765625 -0.1875 18.550781 -0.296875 19.09375 -0.515625 C 19.644531 -0.742188 20.046875 -1.179688 20.296875 -1.828125 C 20.546875 -2.484375 20.671875 -3.453125 20.671875 -4.734375 C 20.671875 -6.035156 20.597656 -6.941406 20.453125 -7.453125 C 20.304688 -7.960938 19.988281 -8.304688 19.5 -8.484375 C 19.007812 -8.660156 18.148438 -8.75 16.921875 -8.75 C 16.773438 -8.75 16.703125 -8.847656 16.703125 -9.046875 C 16.703125 -9.117188 16.71875 -9.1875 16.75 -9.25 C 16.789062 -9.3125 16.835938 -9.34375 16.890625 -9.34375 C 19.015625 -9.21875 20.738281 -9.15625 22.0625 -9.15625 C 23.34375 -9.15625 24.671875 -9.191406 26.046875 -9.265625 C 26.148438 -9.265625 26.207031 -9.175781 26.21875 -9 C 26.226562 -8.832031 26.171875 -8.75 26.046875 -8.75 C 25.597656 -8.769531 25.28125 -8.6875 25.09375 -8.5 C 24.90625 -8.3125 24.785156 -7.929688 24.734375 -7.359375 C 24.679688 -6.785156 24.65625 -5.785156 24.65625 -4.359375 C 24.65625 -3.234375 24.695312 -2.429688 24.78125 -1.953125 C 24.875 -1.472656 24.921875 -1.171875 24.921875 -1.046875 C 24.921875 -0.898438 24.894531 -0.800781 24.84375 -0.75 C 24.789062 -0.695312 24.679688 -0.644531 24.515625 -0.59375 C 21.285156 0.101562 18.378906 0.453125 15.796875 0.453125 Z M 15.796875 0.453125 "/></g></g><g style="fill:#1b5e20;fill-opacity:1;"><g transform="translate(232.395452, 312.929219)"><path style="stroke:none" d="M 26.578125 -0.453125 C 26.617188 -0.453125 26.640625 -0.375 26.640625 -0.21875 C 26.640625 -0.0703125 26.617188 0 26.578125 0 L 19.890625 0 C 19.335938 0 18.3125 -0.992188 16.8125 -2.984375 C 15.3125 -4.972656 13.5 -7.753906 11.375 -11.328125 C 11.175781 -11.304688 10.890625 -11.296875 10.515625 -11.296875 C 9.535156 -11.296875 8.84375 -11.304688 8.4375 -11.328125 L 8.4375 -3.046875 C 8.4375 -2.265625 8.5 -1.695312 8.625 -1.34375 C 8.75 -1 8.992188 -0.765625 9.359375 -0.640625 C 9.722656 -0.515625 10.304688 -0.453125 11.109375 -0.453125 C 11.160156 -0.453125 11.1875 -0.375 11.1875 -0.21875 C 11.1875 -0.0703125 11.160156 0 11.109375 0 C 10.285156 0 9.632812 -0.0078125 9.15625 -0.03125 L 6.3125 -0.078125 L 3.5625 -0.03125 C 3.0625 -0.0078125 2.382812 0 1.53125 0 C 1.457031 0 1.421875 -0.0703125 1.421875 -0.21875 C 1.421875 -0.375 1.457031 -0.453125 1.53125 -0.453125 C 2.332031 -0.453125 2.914062 -0.515625 3.28125 -0.640625 C 3.644531 -0.765625 3.894531 -1.007812 4.03125 -1.375 C 4.164062 -1.738281 4.234375 -2.296875 4.234375 -3.046875 L 4.234375 -20.421875 C 4.234375 -21.171875 4.171875 -21.71875 4.046875 -22.0625 C 3.921875 -22.414062 3.671875 -22.660156 3.296875 -22.796875 C 2.921875 -22.929688 2.347656 -23 1.578125 -23 C 1.523438 -23 1.5 -23.070312 1.5 -23.21875 C 1.5 -23.375 1.523438 -23.453125 1.578125 -23.453125 L 3.5625 -23.421875 C 4.71875 -23.367188 5.632812 -23.34375 6.3125 -23.34375 C 7.15625 -23.34375 8.039062 -23.378906 8.96875 -23.453125 C 9.289062 -23.484375 9.695312 -23.507812 10.1875 -23.53125 C 10.675781 -23.550781 11.222656 -23.5625 11.828125 -23.5625 C 14.097656 -23.5625 15.859375 -23.144531 17.109375 -22.3125 C 18.359375 -21.476562 18.984375 -20.304688 18.984375 -18.796875 C 18.984375 -17.421875 18.609375 -16.175781 17.859375 -15.0625 C 17.109375 -13.957031 16.109375 -13.066406 14.859375 -12.390625 C 16.859375 -9.378906 18.535156 -7.023438 19.890625 -5.328125 C 21.242188 -3.628906 22.445312 -2.390625 23.5 -1.609375 C 24.550781 -0.835938 25.578125 -0.453125 26.578125 -0.453125 Z M 8.4375 -12.390625 C 9.039062 -12.285156 9.769531 -12.234375 10.625 -12.234375 C 12.070312 -12.234375 13.113281 -12.640625 13.75 -13.453125 C 14.394531 -14.265625 14.71875 -15.570312 14.71875 -17.375 C 14.71875 -19.425781 14.414062 -20.835938 13.8125 -21.609375 C 13.207031 -22.390625 12.34375 -22.78125 11.21875 -22.78125 C 10.21875 -22.78125 9.503906 -22.59375 9.078125 -22.21875 C 8.648438 -21.84375 8.4375 -21.21875 8.4375 -20.34375 Z M 8.4375 -12.390625 "/></g></g><g style="fill:#1b5e20;fill-opacity:1;"><g transform="translate(256.822864, 312.929219)"><path style="stroke:none" d="M 13.734375 0.453125 C 11.410156 0.453125 9.335938 -0.0859375 7.515625 -1.171875 C 5.703125 -2.265625 4.300781 -3.742188 3.3125 -5.609375 C 2.332031 -7.472656 1.84375 -9.503906 1.84375 -11.703125 C 1.84375 -14.285156 2.492188 -16.492188 3.796875 -18.328125 C 5.097656 -20.171875 6.765625 -21.554688 8.796875 -22.484375 C 10.835938 -23.410156 12.921875 -23.875 15.046875 -23.875 C 17.421875 -23.875 19.507812 -23.316406 21.3125 -22.203125 C 23.113281 -21.085938 24.492188 -19.613281 25.453125 -17.78125 C 26.421875 -15.957031 26.90625 -14.019531 26.90625 -11.96875 C 26.90625 -9.695312 26.304688 -7.609375 25.109375 -5.703125 C 23.910156 -3.804688 22.300781 -2.304688 20.28125 -1.203125 C 18.269531 -0.0976562 16.085938 0.453125 13.734375 0.453125 Z M 14.96875 -0.484375 C 16.375 -0.484375 17.632812 -0.890625 18.75 -1.703125 C 19.863281 -2.515625 20.734375 -3.703125 21.359375 -5.265625 C 21.984375 -6.835938 22.296875 -8.710938 22.296875 -10.890625 C 22.296875 -13.191406 21.941406 -15.25 21.234375 -17.0625 C 20.535156 -18.875 19.523438 -20.289062 18.203125 -21.3125 C 16.878906 -22.34375 15.328125 -22.859375 13.546875 -22.859375 C 11.273438 -22.859375 9.523438 -22 8.296875 -20.28125 C 7.066406 -18.570312 6.453125 -16.175781 6.453125 -13.09375 C 6.453125 -10.664062 6.820312 -8.492188 7.5625 -6.578125 C 8.300781 -4.671875 9.3125 -3.175781 10.59375 -2.09375 C 11.882812 -1.019531 13.34375 -0.484375 14.96875 -0.484375 Z M 14.96875 -0.484375 "/></g></g></g></svg>